<?xml version="1.0" standalone="no"?><!DOCTYPE svg PUBLIC "-//W3C//DTD SVG 1.1//EN" "http://www.w3.org/Graphics/SVG/1.1/DTD/svg11.dtd"><svg t="1636441582643" class="icon" viewBox="0 0 1202 1024" version="1.1" xmlns="http://www.w3.org/2000/svg" p-id="1968" xmlns:xlink="http://www.w3.org/1999/xlink" width="234.765625" height="200"><defs><style type="text/css"></style></defs><path d="M601.313737 947.451824m-76.485504 0a76.485504 76.485504 0 1 0 152.971008 0 76.485504 76.485504 0 1 0-152.971008 0Z" fill="#B10000" p-id="1969"></path><path d="M601.313737 934.17394a16.826811 16.826811 0 0 0-7.847413 31.695593v57.731259a77.479816 77.479816 0 0 0 15.710123 0v-57.77715a16.826811 16.826811 0 0 0-7.86271-31.649702zM608.68694 916.719948a362.54129 362.54129 0 0 0 60.347063-4.818587 76.485504 76.485504 0 0 0-133.987307-2.631101 342.349117 342.349117 0 0 0 73.640244 7.449688z" fill="#B10000" p-id="1970"></path><path d="M632.657497 281.874966c101.46567 7.556768 179.144348 94.842025 211.252962 185.09492 13.690905 38.487506 25.01076 82.956178 25.11784 123.906517 0 11.778768 9.698362 17.576369 17.056267 25.408484 33.745404 35.856404 56.461599 81.671221 50.771078 131.968089-7.495579 66.159961-52.147817 102.230525-111.867698 121.917894-135.28756 44.621643-281.466656 46.289027-415.499853-4.191406a31.71089 31.71089 0 0 1-9.39242-4.680912c-11.273963-10.707971-23.939963-19.73326-35.856405-29.691673-55.069563-45.891303-66.496497-117.787677-27.917209-178.241819 9.820739-15.373586 20.406333-30.227071 34.143129-42.403564 7.510877-6.654239 10.707971-14.654623 11.901145-24.475361 7.434391-61.387266 23.022137-120.434075 51.520635-175.687203 12.987239-25.179028 28.605579-48.49181 48.690672-68.638092a198.60226 198.60226 0 0 1 61.188404-44.988773c28.299637-13.660311 57.991309-17.591666 88.891453-15.297101zM420.150172 363.592078l-26.005072 31.022521c-15.205318 14.302789-31.206086 27.534782-50.939345 35.183332-39.09939 15.006456-72.722417 3.610116-103.056569-22.272579-4.895072-4.176109-9.331232-8.887616-13.966253-13.354369-0.565993-4.742101 3.1665-6.70013 6.11884-8.795833 20.406333-14.409869 40.950339-28.590281 62.809897-40.782071a99.431155 99.431155 0 0 1 15.2971-6.59305c9.851333-3.487739 19.029593-2.111 27.81013 3.365362 6.746021 4.191406 13.017833 9.055884 19.564992 13.553231 13.767391 9.468905 28.865629 10.799753 44.698128 7.220232 3.74779-0.856638 7.342608-2.095703 11.212775-0.979015z" fill="#B10000" p-id="1971"></path><path d="M816.696917 409.789323c-9.774847-11.350449-18.249441-24.154122-25.882695-35.810513q-2.95234-4.58913-5.767007-9.178261c2.967638-4.191406 5.828195-0.933123 7.770928 0.734261 17.606963 15.14413 38.349832 8.398108 57.318236 0 18.356521-8.122761 33.867781-14.761702 54.151737-8.780536 22.777383 6.715427 44.361592 20.651086 63.26881 34.709122 4.11492 3.05942 6.853101 7.143746 10.019601 10.952724 4.390268 5.2775-20.406333 22.624412-23.95526 25.071949-16.367898 11.258666-35.93289 20.023905-56.017984 20.849948-19.243753 0.780152-38.441614-5.659927-54.733026-15.51126a111.837104 111.837104 0 0 1-26.17334-23.037434z" fill="#B10000" p-id="1972"></path><path d="M977.622418 402.462012c-13.446152-8.795833-25.729724-19.304941-39.864245-27.106463-11.794065-6.516565-23.634021-12.773079-36.713042-16.444383-12.849565-3.594819-24.689521-2.049812-36.590665 3.53363-12.161195 5.705819-24.016448 12.08471-37.340223 15.159427-12.757782 2.95234-28.024289-0.94842-36.850716-11.013913-0.871935-0.994312-1.820355-2.141594-3.05942-2.218079-0.611884 0-1.239065 0.183565-1.85095 0.091782s-3.686601-5.017449-3.53363-5.201014c6.516565-8.015681 13.950956-15.450072 16.123144-26.142745 12.971942-2.432239 25.928586-4.864478 39.114687-5.690522 39.512411-2.47813 82.3137-0.856638 112.984387 27.534782q3.472442 3.212391 6.623645 6.761318a88.340757 88.340757 0 0 1 20.957028 40.73618zM418.10036 361.435187a48.950723 48.950723 0 0 1-16.658543 5.996464c-18.800137 2.891152-39.420629-4.32908-54.02936-16.046659-19.886231-16.000767-29.630484-16.398492-52.010143-3.53363a581.519289 581.519289 0 0 0-69.295866 46.334918c-3.334768-2.845261-0.458913-5.430471 0.627181-7.64855 17.071565-35.810513 51.000534-60.576519 89.931656-67.674374 17.301021-3.151203 34.709122-1.728572 52.086628-0.091783 15.297101 1.437927 52.576136 4.58913 59.352751 21.171188 3.885464 9.407717-2.00392 16.735028-10.004304 21.492426z" fill="#B10000" p-id="1973"></path><path d="M629.36862 280.804169c-30.456528-0.489507-61.188403-0.841341-91.262504 4.910369a192.972927 192.972927 0 0 0-43.734411 13.767391c-54.518867 24.811898-92.593351 77.082091-117.08401 129.489958a441.68849 441.68849 0 0 0-18.035282 44.912289 497.018104 497.018104 0 0 0-21.6301 93.312315c-3.05942 22.945651-10.187869 41.302172-27.01468 58.0372-34.892687 34.816202-54.396491 91.109533-37.56968 139.004756 18.861325 53.66223 83.981084 90.084627 136.34306 102.796517 0.994312 0.244754 7.159043 0.963717 7.464985 1.667384-1.239065-2.860558-19.702666-14.012144-21.95134-15.87839-17.285724-14.394572-35.978781-27.259434-49.715577-45.585361-32.812281-43.749708-38.380426-90.115221-13.476746-139.356588a208.040571 208.040571 0 0 1 45.187636-59.092701 20.834651 20.834651 0 0 0 7.220231-13.461449c1.759167-14.19571 3.961949-28.345528 6.394188-42.449455a501.622531 501.622531 0 0 1 37.799137-124.105379 323.457197 323.457197 0 0 1 55.620258-84.975395l11.625797-10.707971a194.12021 194.12021 0 0 1 137.092618-51.291179 11.686985 11.686985 0 0 0-3.27358-0.994311zM641.560409 467.612364a64.890302 64.890302 0 0 1 18.20355-36.4071 62.993461 62.993461 0 0 1 68.087396-13.29318 62.198012 62.198012 0 0 1 27.274731 21.415941 62.901679 62.901679 0 0 1-62.94757 98.268576 61.739099 61.739099 0 0 1-35.382194-20.375739c-10.830347-12.528326-17.056267-28.330231-15.771311-44.896991q0.183565-2.386348 0.535398-4.711507z" fill="#B10000" p-id="1974"></path><path d="M561.265927 483.322487a61.004838 61.004838 0 0 1-5.292797 18.815434c-13.767391 29.615187-49.134288 43.933274-79.667301 32.65931-26.219231-9.683065-42.05173-34.724419-40.170187-63.574751 1.973326-30.242368 25.454376-52.331382 54.289411-58.128983 23.725803-4.757398 50.480433 11.472826 62.289795 31.389651a62.075635 62.075635 0 0 1 8.551079 38.839339z" fill="#B10000" p-id="1975"></path><path d="M507.098893 480.048907m-37.753245 0a37.753245 37.753245 0 1 0 75.50649 0 37.753245 37.753245 0 1 0-75.50649 0Z" fill="#B10000" p-id="1976"></path><path d="M694.993183 480.048907m-37.753245 0a37.753245 37.753245 0 1 0 75.50649 0 37.753245 37.753245 0 1 0-75.50649 0Z" fill="#B10000" p-id="1977"></path><path d="M597.871889 824.876154a256.149954 256.149954 0 0 1-39.894839-4.130217 89.686902 89.686902 0 0 1-47.421012-24.031745c-26.005071-25.37789-29.064492-72.661229-19.396724-105.855938 4.58913-15.786608 13.492043-30.594202 26.724035-40.384346 14.501652-10.707971 32.888767-14.501652 50.786375-16.536166a273.083844 273.083844 0 0 1 77.571598 1.682681c21.828963 3.793681 45.386498 12.405949 57.042889 32.55223a97.901445 97.901445 0 0 1 12.543623 40.690289c2.462833 28.988006-2.187485 62.718113-22.639709 84.745938a90.574134 90.574134 0 0 1-43.336687 25.653238 190.816036 190.816036 0 0 1-51.979549 5.614036z" fill="#B10000" p-id="1978"></path><path d="M598.499071 807.483351a209.968006 209.968006 0 0 1-32.705202-3.334768 73.517867 73.517867 0 0 1-38.854636-19.702666c-21.308861-20.804057-23.771695-59.551614-15.893688-86.765156 3.74779-12.941347 11.059804-25.11784 21.905448-33.102926 11.885847-8.749942 26.968789-11.885847 41.638709-13.553232a223.857774 223.857774 0 0 1 63.574751 1.376739c17.897608 3.05942 37.202549 10.172572 46.763237 26.678144a80.217997 80.217997 0 0 1 10.279652 33.34768c2.019217 23.756398-1.789761 51.44415-18.555383 69.464135a74.23683 74.23683 0 0 1-35.56576 21.00292 156.412856 156.412856 0 0 1-42.587128 4.58913z" fill="#B10000" p-id="1979"></path><path d="M580.111955 674.123226c7.235529-7.235529 2.294565-17.163347-2.340456-23.496347-1.070797 0.10708-2.126297 0.198862-3.197094 0.321239-14.66992 1.667384-29.737564 4.80329-41.638709 13.553231-10.845644 7.985087-18.172956 20.161579-21.905448 33.102926-7.878007 27.213542-5.415174 65.961099 15.893688 86.765156a71.605729 71.605729 0 0 0 21.783071 14.547543c-0.321239-12.405949-13.323775-48.614186-12.390651-70.504337 1.193174-27.504187 32.338071-42.785991 43.795599-54.289411zM0.137674 73.451967C-1.468522 37.090758 26.356905 17.112744 50.816969 28.799729s13.155507 82.176026 21.415941 112.647851 38.594585 20.68168 55.329614 18.998999-2.891152-21.324159-6.11884-57.532396 32.475745-30.884847 49.960331-5.06334a4.58913 4.58913 0 0 0 8.382811-3.059421c-0.795449-7.801521-1.52971-16.490275-2.355753-26.586361-4.099623-49.945034 33.087629-79.055417 67.307243-64.416091s22.333767 112.28072 35.275115 153.705269 54.090549 26.203934 77.020903 22.945651-5.078637-29.171571-11.411638-78.795366 43.00015-44.361592 68.393338-9.912522c14.792297 20.100391 22.471441 47.283339 30.701282 70.473744 18.585978 52.377273 31.297868 106.223068 48.445918 158.982769 3.763087 11.595202 5.828195 22.807977-2.600507 32.812281-7.235529 8.596971-18.631869 13.124913-29.278651 15.756014-18.78484 4.58913-35.504571 5.078637-47.711658-12.08471-8.245137-11.595202-10.187869-33.837187-10.034898-47.665766 0-6.409485 0.504804-13.262586-1.330847-19.488506-5.2775-17.928202-27.733644-16.30671-42.571832-14.547543-61.647316 7.312014-97.289561-6.424782-119.822191-27.901912a4.32908 4.32908 0 0 0-1.315551-0.871935c-24.475361-10.264355-62.932273-20.987622-111.668836-17.316318-85.877924 6.470674-100.838489-39.772462-112.540771-74.328613S1.667384 109.828473 0.137674 73.451967zM1202.4898 73.451967c1.606196-36.361209-26.219231-56.339222-50.679295-44.652238s-13.155507 82.176026-21.415941 112.647851-38.594585 20.68168-55.329614 18.998999 2.891152-21.324159 6.118841-57.532396-32.475745-30.884847-49.960332-5.06334a4.58913 4.58913 0 0 1-8.382811-3.059421c0.795449-7.801521 1.52971-16.490275 2.355754-26.586361 4.099623-49.945034-33.087629-79.055417-67.307244-64.416091s-22.333767 112.28072-35.275115 153.705269-54.090549 26.203934-77.020902 22.945651 5.078637-29.171571 11.411637-78.795366-43.00015-44.361592-68.393338-9.912522c-14.792297 20.100391-22.471441 47.283339-30.701282 70.473744-18.585978 52.377273-31.297868 106.223068-48.445918 158.982769-3.763087 11.595202-5.828195 22.807977 2.600507 32.812281 7.235529 8.596971 18.631869 13.124913 29.278651 15.756014 18.78484 4.58913 35.504571 5.078637 47.711658-12.08471 8.245137-11.595202 10.187869-33.837187 10.034898-47.665766 0-6.409485-0.504804-13.262586 1.330848-19.488506 5.2775-17.928202 27.733644-16.30671 42.571831-14.547543 61.647316 7.312014 97.289561-6.424782 119.822191-27.901912a4.32908 4.32908 0 0 1 1.315551-0.871935c24.475361-10.264355 62.932273-20.987622 111.668836-17.316318 85.877924 6.470674 100.838489-39.772462 112.540771-74.328613s12.620108-45.723034 14.149818-82.09954z" fill="#B10000" p-id="1980"></path><path d="M601.313737 947.451824m-76.485504 0a76.485504 76.485504 0 1 0 152.971008 0 76.485504 76.485504 0 1 0-152.971008 0Z" fill="#FFDA00" p-id="1981"></path><path d="M601.313737 934.17394a16.826811 16.826811 0 0 0-7.847413 31.695593v57.731259a77.479816 77.479816 0 0 0 15.710123 0v-57.77715a16.826811 16.826811 0 0 0-7.86271-31.649702z" fill="#5B5B5B" p-id="1982"></path><path d="M608.68694 916.719948a362.54129 362.54129 0 0 0 60.347063-4.818587 76.485504 76.485504 0 0 0-133.987307-2.631101 342.349117 342.349117 0 0 0 73.640244 7.449688z" fill="#F4CB00" p-id="1983"></path><path d="M632.657497 281.874966c101.46567 7.556768 179.144348 94.842025 211.252962 185.09492 13.690905 38.487506 25.01076 82.956178 25.11784 123.906517 0 11.778768 9.698362 17.576369 17.056267 25.408484 33.745404 35.856404 56.461599 81.671221 50.771078 131.968089-7.495579 66.159961-52.147817 102.230525-111.867698 121.917894-135.28756 44.621643-281.466656 46.289027-415.499853-4.191406a31.71089 31.71089 0 0 1-9.39242-4.680912c-11.273963-10.707971-23.939963-19.73326-35.856405-29.691673-55.069563-45.891303-66.496497-117.787677-27.917209-178.241819 9.820739-15.373586 20.406333-30.227071 34.143129-42.403564 7.510877-6.654239 10.707971-14.654623 11.901145-24.475361 7.434391-61.387266 23.022137-120.434075 51.520635-175.687203 12.987239-25.179028 28.605579-48.49181 48.690672-68.638092a198.60226 198.60226 0 0 1 61.188404-44.988773c28.299637-13.660311 57.991309-17.591666 88.891453-15.297101z" fill="#D69C63" p-id="1984"></path><path d="M420.150172 363.592078l-26.005072 31.022521c-15.205318 14.302789-31.206086 27.534782-50.939345 35.183332-39.09939 15.006456-72.722417 3.610116-103.056569-22.272579-4.895072-4.176109-9.331232-8.887616-13.966253-13.354369-0.565993-4.742101 3.1665-6.70013 6.11884-8.795833 20.406333-14.409869 40.950339-28.590281 62.809897-40.782071a99.431155 99.431155 0 0 1 15.2971-6.59305c9.851333-3.487739 19.029593-2.111 27.81013 3.365362 6.746021 4.191406 13.017833 9.055884 19.564992 13.553231 13.767391 9.468905 28.865629 10.799753 44.698128 7.220232 3.74779-0.856638 7.342608-2.095703 11.212775-0.979015zM816.696917 409.789323c-9.774847-11.350449-18.249441-24.154122-25.882695-35.810513q-2.95234-4.58913-5.767007-9.178261c2.967638-4.191406 5.828195-0.933123 7.770928 0.734261 17.606963 15.14413 38.349832 8.398108 57.318236 0 18.356521-8.122761 33.867781-14.761702 54.151737-8.780536 22.777383 6.715427 44.361592 20.651086 63.26881 34.709122 4.11492 3.05942 6.853101 7.143746 10.019601 10.952724 4.390268 5.2775-20.406333 22.624412-23.95526 25.071949-16.367898 11.258666-35.93289 20.023905-56.017984 20.849948-19.243753 0.780152-38.441614-5.659927-54.733026-15.51126a111.837104 111.837104 0 0 1-26.17334-23.037434z" fill="#EFCA95" p-id="1985"></path><path d="M977.622418 402.462012c-13.446152-8.795833-25.729724-19.304941-39.864245-27.106463-11.794065-6.516565-23.634021-12.773079-36.713042-16.444383-12.849565-3.594819-24.689521-2.049812-36.590665 3.53363-12.161195 5.705819-24.016448 12.08471-37.340223 15.159427-12.757782 2.95234-28.024289-0.94842-36.850716-11.013913-0.871935-0.994312-1.820355-2.141594-3.05942-2.218079-0.611884 0-1.239065 0.183565-1.85095 0.091782s-3.686601-5.017449-3.53363-5.201014c6.516565-8.015681 13.950956-15.450072 16.123144-26.142745 12.971942-2.432239 25.928586-4.864478 39.114687-5.690522 39.512411-2.47813 82.3137-0.856638 112.984387 27.534782q3.472442 3.212391 6.623645 6.761318a88.340757 88.340757 0 0 1 20.957028 40.73618zM418.10036 361.435187a48.950723 48.950723 0 0 1-16.658543 5.996464c-18.800137 2.891152-39.420629-4.32908-54.02936-16.046659-19.886231-16.000767-29.630484-16.398492-52.010143-3.53363a581.519289 581.519289 0 0 0-69.295866 46.334918c-3.334768-2.845261-0.458913-5.430471 0.627181-7.64855 17.071565-35.810513 51.000534-60.576519 89.931656-67.674374 17.301021-3.151203 34.709122-1.728572 52.086628-0.091783 15.297101 1.437927 52.576136 4.58913 59.352751 21.171188 3.885464 9.407717-2.00392 16.735028-10.004304 21.492426z" fill="#D69C63" p-id="1986"></path><path d="M629.36862 280.804169c-30.456528-0.489507-61.188403-0.841341-91.262504 4.910369a192.972927 192.972927 0 0 0-43.734411 13.767391c-54.518867 24.811898-92.593351 77.082091-117.08401 129.489958a441.68849 441.68849 0 0 0-18.035282 44.912289 497.018104 497.018104 0 0 0-21.6301 93.312315c-3.05942 22.945651-10.187869 41.302172-27.01468 58.0372-34.892687 34.816202-54.396491 91.109533-37.56968 139.004756 18.861325 53.66223 83.981084 90.084627 136.34306 102.796517 0.994312 0.244754 7.159043 0.963717 7.464985 1.667384-1.239065-2.860558-19.702666-14.012144-21.95134-15.87839-17.285724-14.394572-35.978781-27.259434-49.715577-45.585361-32.812281-43.749708-38.380426-90.115221-13.476746-139.356588a208.040571 208.040571 0 0 1 45.187636-59.092701 20.834651 20.834651 0 0 0 7.220231-13.461449c1.759167-14.19571 3.961949-28.345528 6.394188-42.449455a501.622531 501.622531 0 0 1 37.799137-124.105379 323.457197 323.457197 0 0 1 55.620258-84.975395l11.625797-10.707971a194.12021 194.12021 0 0 1 137.092618-51.291179 11.686985 11.686985 0 0 0-3.27358-0.994311z" fill="#C99250" p-id="1987"></path><path d="M641.560409 467.612364a64.890302 64.890302 0 0 1 18.20355-36.4071 62.993461 62.993461 0 0 1 68.087396-13.29318 62.198012 62.198012 0 0 1 27.274731 21.415941 62.901679 62.901679 0 0 1-62.94757 98.268576 61.739099 61.739099 0 0 1-35.382194-20.375739c-10.830347-12.528326-17.056267-28.330231-15.771311-44.896991q0.183565-2.386348 0.535398-4.711507zM561.265927 483.322487a61.004838 61.004838 0 0 1-5.292797 18.815434c-13.767391 29.615187-49.134288 43.933274-79.667301 32.65931-26.219231-9.683065-42.05173-34.724419-40.170187-63.574751 1.973326-30.242368 25.454376-52.331382 54.289411-58.128983 23.725803-4.757398 50.480433 11.472826 62.289795 31.389651a62.075635 62.075635 0 0 1 8.551079 38.839339z" fill="#FDFDFD" p-id="1988"></path><path d="M507.098893 480.048907m-37.753245 0a37.753245 37.753245 0 1 0 75.50649 0 37.753245 37.753245 0 1 0-75.50649 0Z" fill="#3A220C" p-id="1989"></path><path d="M694.993183 480.048907m-37.753245 0a37.753245 37.753245 0 1 0 75.50649 0 37.753245 37.753245 0 1 0-75.50649 0Z" fill="#3A220C" p-id="1990"></path><path d="M597.871889 824.876154a256.149954 256.149954 0 0 1-39.894839-4.130217 89.686902 89.686902 0 0 1-47.421012-24.031745c-26.005071-25.37789-29.064492-72.661229-19.396724-105.855938 4.58913-15.786608 13.492043-30.594202 26.724035-40.384346 14.501652-10.707971 32.888767-14.501652 50.786375-16.536166a273.083844 273.083844 0 0 1 77.571598 1.682681c21.828963 3.793681 45.386498 12.405949 57.042889 32.55223a97.901445 97.901445 0 0 1 12.543623 40.690289c2.462833 28.988006-2.187485 62.718113-22.639709 84.745938a90.574134 90.574134 0 0 1-43.336687 25.653238 190.816036 190.816036 0 0 1-51.979549 5.614036z" fill="#FFFFFF" p-id="1991"></path><path d="M598.499071 807.483351a209.968006 209.968006 0 0 1-32.705202-3.334768 73.517867 73.517867 0 0 1-38.854636-19.702666c-21.308861-20.804057-23.771695-59.551614-15.893688-86.765156 3.74779-12.941347 11.059804-25.11784 21.905448-33.102926 11.885847-8.749942 26.968789-11.885847 41.638709-13.553232a223.857774 223.857774 0 0 1 63.574751 1.376739c17.897608 3.05942 37.202549 10.172572 46.763237 26.678144a80.217997 80.217997 0 0 1 10.279652 33.34768c2.019217 23.756398-1.789761 51.44415-18.555383 69.464135a74.23683 74.23683 0 0 1-35.56576 21.00292 156.412856 156.412856 0 0 1-42.587128 4.58913z" fill="#C70000" p-id="1992"></path><path d="M580.111955 674.123226c7.235529-7.235529 2.294565-17.163347-2.340456-23.496347-1.070797 0.10708-2.126297 0.198862-3.197094 0.321239-14.66992 1.667384-29.737564 4.80329-41.638709 13.553231-10.845644 7.985087-18.172956 20.161579-21.905448 33.102926-7.878007 27.213542-5.415174 65.961099 15.893688 86.765156a71.605729 71.605729 0 0 0 21.783071 14.547543c-0.321239-12.405949-13.323775-48.614186-12.390651-70.504337 1.193174-27.504187 32.338071-42.785991 43.795599-54.289411z" fill="#B10000" p-id="1993"></path><path d="M0.137674 73.451967C-1.468522 37.090758 26.356905 17.112744 50.816969 28.799729s13.155507 82.176026 21.415941 112.647851 38.594585 20.68168 55.329614 18.998999-2.891152-21.324159-6.11884-57.532396 32.475745-30.884847 49.960331-5.06334a4.58913 4.58913 0 0 0 8.382811-3.059421c-0.795449-7.801521-1.52971-16.490275-2.355753-26.586361-4.099623-49.945034 33.087629-79.055417 67.307243-64.416091s22.333767 112.28072 35.275115 153.705269 54.090549 26.203934 77.020903 22.945651-5.078637-29.171571-11.411638-78.795366 43.00015-44.361592 68.393338-9.912522c14.792297 20.100391 22.471441 47.283339 30.701282 70.473744 18.585978 52.377273 31.297868 106.223068 48.445918 158.982769 3.763087 11.595202 5.828195 22.807977-2.600507 32.812281-7.235529 8.596971-18.631869 13.124913-29.278651 15.756014-18.78484 4.58913-35.504571 5.078637-47.711658-12.08471-8.245137-11.595202-10.187869-33.837187-10.034898-47.665766 0-6.409485 0.504804-13.262586-1.330847-19.488506-5.2775-17.928202-27.733644-16.30671-42.571832-14.547543-61.647316 7.312014-97.289561-6.424782-119.822191-27.901912a4.32908 4.32908 0 0 0-1.315551-0.871935c-24.475361-10.264355-62.932273-20.987622-111.668836-17.316318-85.877924 6.470674-100.838489-39.772462-112.540771-74.328613S1.667384 109.828473 0.137674 73.451967zM1202.4898 73.451967c1.606196-36.361209-26.219231-56.339222-50.679295-44.652238s-13.155507 82.176026-21.415941 112.647851-38.594585 20.68168-55.329614 18.998999 2.891152-21.324159 6.118841-57.532396-32.475745-30.884847-49.960332-5.06334a4.58913 4.58913 0 0 1-8.382811-3.059421c0.795449-7.801521 1.52971-16.490275 2.355754-26.586361 4.099623-49.945034-33.087629-79.055417-67.307244-64.416091s-22.333767 112.28072-35.275115 153.705269-54.090549 26.203934-77.020902 22.945651 5.078637-29.171571 11.411637-78.795366-43.00015-44.361592-68.393338-9.912522c-14.792297 20.100391-22.471441 47.283339-30.701282 70.473744-18.585978 52.377273-31.297868 106.223068-48.445918 158.982769-3.763087 11.595202-5.828195 22.807977 2.600507 32.812281 7.235529 8.596971 18.631869 13.124913 29.278651 15.756014 18.78484 4.58913 35.504571 5.078637 47.711658-12.08471 8.245137-11.595202 10.187869-33.837187 10.034898-47.665766 0-6.409485-0.504804-13.262586 1.330848-19.488506 5.2775-17.928202 27.733644-16.30671 42.571831-14.547543 61.647316 7.312014 97.289561-6.424782 119.822191-27.901912a4.32908 4.32908 0 0 1 1.315551-0.871935c24.475361-10.264355 62.932273-20.987622 111.668836-17.316318 85.877924 6.470674 100.838489-39.772462 112.540771-74.328613s12.620108-45.723034 14.149818-82.09954z" fill="#210E01" p-id="1994"></path></svg>